<svg width="24" height="24" viewBox="0 0 24 24" fill="none" xmlns="http://www.w3.org/2000/svg">
<path fill-rule="evenodd" clip-rule="evenodd" d="M12 0C5.37264 0 0 5.37264 0 12C0 18.6274 5.37264 24 12 24C18.6274 24 24 18.6274 24 12C24 5.37264 18.6274 0 12 0ZM12.0009 0.960938C18.0883 0.960938 23.0409 5.91358 23.0409 12.0009C23.0409 18.0883 18.0883 23.0409 12.0009 23.0409C5.91358 23.0409 0.960938 18.0883 0.960938 12.0009C0.960938 5.91358 5.91358 0.960938 12.0009 0.960938ZM11.9917 14.6414C11.7268 14.6414 11.5117 14.4263 11.5117 14.1614V7.15578C11.5117 6.89058 11.7268 6.67578 11.9917 6.67578C12.2567 6.67578 12.4717 6.89058 12.4717 7.15578V14.1614C12.4717 14.4263 12.2567 14.6414 11.9917 14.6414ZM11.9917 17.5064C11.7268 17.5064 11.5117 17.2913 11.5117 17.0264V16.7573C11.5117 16.4921 11.7268 16.2773 11.9917 16.2773C12.2567 16.2773 12.4717 16.4921 12.4717 16.7573V17.0264C12.4717 17.2913 12.2567 17.5064 11.9917 17.5064Z" fill="currentColor"/>
</svg>
