<svg width="24" height="24" viewBox="0 0 24 24" fill="none" xmlns="http://www.w3.org/2000/svg">
<path fill-rule="evenodd" clip-rule="evenodd" d="M5.20275 19.3377C5.40575 19.3377 5.57075 19.1577 5.57075 18.9357V11.9937C5.57075 11.7727 5.40575 11.5907 5.20275 11.5907H3.79675C3.59275 11.5907 3.42875 11.7727 3.42875 11.9937V18.9357C3.42875 19.1577 3.59275 19.3377 3.79675 19.3377H5.20275ZM21.4847 20.1528H2.62775C2.41275 20.1528 2.23475 20.3328 2.23475 20.5548V21.5958C2.23475 21.8188 2.41275 21.9977 2.62775 21.9977H21.4847C21.7017 21.9977 21.8757 21.8188 21.8757 21.5958V20.5548C21.8757 20.3328 21.7017 20.1528 21.4847 20.1528ZM10.2037 19.3377C10.4047 19.3377 10.5697 19.1577 10.5697 18.9357V11.9937C10.5697 11.7727 10.4047 11.5907 10.2037 11.5907H8.79275C8.59175 11.5907 8.42775 11.7727 8.42775 11.9937V18.9357C8.42775 19.1577 8.59175 19.3377 8.79275 19.3377H10.2037ZM20.2017 19.3377C20.4027 19.3377 20.5687 19.1577 20.5687 18.9357V11.9937C20.5687 11.7727 20.4027 11.5907 20.2017 11.5907H18.7927C18.5907 11.5907 18.4267 11.7727 18.4267 11.9937V18.9357C18.4267 19.1577 18.5907 19.3377 18.7927 19.3377H20.2017ZM21.4887 9.41175L13.4987 2.53175C12.6727 1.82275 11.3237 1.82275 10.4977 2.53175L2.50975 9.41175C1.68175 10.1248 1.88475 10.7037 2.95675 10.7037H21.0427C22.1127 10.7037 22.3147 10.1248 21.4887 9.41175ZM11.9987 9.00875C11.0127 9.00875 10.2137 8.18175 10.2137 7.16275C10.2137 6.14475 11.0127 5.31975 11.9987 5.31975C12.9867 5.31975 13.7847 6.14475 13.7847 7.16275C13.7847 8.18175 12.9867 9.00875 11.9987 9.00875ZM15.2027 19.3377C15.4057 19.3377 15.5697 19.1577 15.5697 18.9357V11.9937C15.5697 11.7727 15.4057 11.5907 15.2027 11.5907H13.7947C13.5917 11.5907 13.4277 11.7727 13.4277 11.9937V18.9357C13.4277 19.1577 13.5917 19.3377 13.7947 19.3377H15.2027Z" fill="currentColor"/>
</svg>
