<svg width="24" height="24" viewBox="0 0 24 24" fill="none" xmlns="http://www.w3.org/2000/svg">
<path fill-rule="evenodd" clip-rule="evenodd" d="M2 6C2 4.89543 2.89543 4 4 4H20C21.1046 4 22 4.89543 22 6V18C22 19.1046 21.1046 20 20 20H4C2.89543 20 2 19.1046 2 18V6ZM20 6L4 6V18H20V6Z" fill="currentColor"/>
<path fill-rule="evenodd" clip-rule="evenodd" d="M21 9H3V7H21V9Z" fill="currentColor"/>
<path fill-rule="evenodd" clip-rule="evenodd" d="M19 12.0004L5 12.0004V10.4004L19 10.4004V12.0004Z" fill="currentColor"/>
<path d="M8 15.5C8 16.3284 7.32843 17 6.5 17C5.67157 17 5 16.3284 5 15.5C5 14.6716 5.67157 14 6.5 14C7.32843 14 8 14.6716 8 15.5Z" fill="currentColor"/>
<path d="M12 15.5C12 16.3284 11.3284 17 10.5 17C9.67157 17 9 16.3284 9 15.5C9 14.6716 9.67157 14 10.5 14C11.3284 14 12 14.6716 12 15.5Z" fill="currentColor"/>
</svg>
