<svg width="24" height="24" viewBox="0 0 24 24" fill="none" xmlns="http://www.w3.org/2000/svg">
<path fill-rule="evenodd" clip-rule="evenodd" d="M12 1.92C11.7032 1.92 11.4096 1.9328 11.1197 1.95785C10.5915 2.00349 10.1262 1.61228 10.0806 1.08406C10.035 0.555834 10.4262 0.0906225 10.9544 0.0449798C11.2992 0.0151876 11.6479 0 12 0C12.3521 0 12.7008 0.0151877 13.0456 0.0449799C13.5738 0.0906227 13.965 0.555834 13.9194 1.08406C13.8738 1.61228 13.4085 2.00349 12.8803 1.95785C12.5904 1.9328 12.2968 1.92 12 1.92ZM15.7971 1.58571C16.0215 1.10534 16.5928 0.897819 17.0731 1.1222C17.7093 1.41936 18.3149 1.77056 18.884 2.16982C19.3181 2.4743 19.4231 3.07299 19.1186 3.50704C18.8142 3.94108 18.2155 4.04612 17.7814 3.74164C17.3031 3.4061 16.7945 3.11117 16.2606 2.86178C15.7802 2.63739 15.5727 2.06608 15.7971 1.58571ZM8.20293 1.58571C8.42732 2.06608 8.2198 2.63739 7.73943 2.86178C7.20552 3.11118 6.6969 3.4061 6.21857 3.74164C5.78452 4.04612 5.18583 3.94109 4.88135 3.50704C4.57687 3.07299 4.6819 2.4743 5.11595 2.16982C5.68511 1.77056 6.2907 1.41936 6.92686 1.12221C7.40723 0.897819 7.97855 1.10534 8.20293 1.58571ZM20.493 4.88135C20.927 4.57687 21.5257 4.6819 21.8302 5.11595C22.2294 5.68511 22.5806 6.2907 22.8778 6.92686C23.1022 7.40723 22.8947 7.97855 22.4143 8.20293C21.9339 8.42732 21.3626 8.2198 21.1382 7.73943C20.8888 7.20552 20.5939 6.6969 20.2584 6.21857C19.9539 5.78452 20.0589 5.18583 20.493 4.88135ZM3.50704 4.88135C3.94108 5.18583 4.04612 5.78453 3.74164 6.21857C3.4061 6.6969 3.11117 7.20552 2.86178 7.73943C2.63739 8.2198 2.06608 8.42732 1.58571 8.20294C1.10534 7.97855 0.897819 7.40723 1.1222 6.92686C1.41936 6.29071 1.77056 5.68511 2.16982 5.11595C2.4743 4.68191 3.07299 4.57687 3.50704 4.88135ZM1.08406 10.0806C1.61228 10.1262 2.00349 10.5915 1.95785 11.1197C1.9328 11.4096 1.92 11.7032 1.92 12C1.92 12.2968 1.9328 12.5904 1.95785 12.8803C2.00349 13.4085 1.61228 13.8738 1.08406 13.9194C0.555834 13.965 0.0906225 13.5738 0.0449798 13.0456C0.0151876 12.7008 0 12.3521 0 12C0 11.6479 0.0151877 11.2992 0.0449799 10.9544C0.0906227 10.4262 0.555834 10.035 1.08406 10.0806ZM22.9159 10.0806C23.4442 10.035 23.9094 10.4262 23.955 10.9544C23.9848 11.2992 24 11.6479 24 12C24 12.3521 23.9848 12.7008 23.955 13.0456C23.9094 13.5738 23.4442 13.965 22.9159 13.9194C22.3877 13.8738 21.9965 13.4085 22.0421 12.8803C22.0672 12.5904 22.08 12.2968 22.08 12C22.08 11.7032 22.0672 11.4096 22.0421 11.1197C21.9965 10.5915 22.3877 10.1262 22.9159 10.0806ZM22.4143 15.7971C22.8947 16.0215 23.1022 16.5928 22.8778 17.0731C22.5806 17.7093 22.2294 18.3149 21.8302 18.884C21.5257 19.3181 20.927 19.4231 20.493 19.1186C20.0589 18.8142 19.9539 18.2155 20.2584 17.7814C20.5939 17.3031 20.8888 16.7945 21.1382 16.2606C21.3626 15.7802 21.9339 15.5727 22.4143 15.7971ZM1.58571 15.7971C2.06608 15.5727 2.63739 15.7802 2.86178 16.2606C3.11118 16.7945 3.4061 17.3031 3.74164 17.7814C4.04612 18.2155 3.94109 18.8142 3.50704 19.1186C3.07299 19.4231 2.4743 19.3181 2.16982 18.884C1.77056 18.3149 1.41936 17.7093 1.12221 17.0731C0.897819 16.5928 1.10534 16.0215 1.58571 15.7971ZM19.1186 20.493C19.4231 20.927 19.3181 21.5257 18.884 21.8302C18.3149 22.2294 17.7093 22.5806 17.0731 22.8778C16.5928 23.1022 16.0215 22.8947 15.7971 22.4143C15.5727 21.9339 15.7802 21.3626 16.2606 21.1382C16.7945 20.8888 17.3031 20.5939 17.7814 20.2584C18.2155 19.9539 18.8142 20.0589 19.1186 20.493ZM4.88135 20.493C5.18583 20.0589 5.78453 19.9539 6.21857 20.2584C6.6969 20.5939 7.20552 20.8888 7.73943 21.1382C8.2198 21.3626 8.42732 21.9339 8.20294 22.4143C7.97855 22.8947 7.40723 23.1022 6.92686 22.8778C6.29071 22.5806 5.68511 22.2294 5.11595 21.8302C4.68191 21.5257 4.57687 20.927 4.88135 20.493ZM10.0806 22.9159C10.1262 22.3877 10.5915 21.9965 11.1197 22.0421C11.4096 22.0672 11.7032 22.08 12 22.08C12.2968 22.08 12.5904 22.0672 12.8803 22.0421C13.4085 21.9965 13.8738 22.3877 13.9194 22.9159C13.965 23.4442 13.5738 23.9094 13.0456 23.955C12.7008 23.9848 12.3521 24 12 24C11.6479 24 11.2992 23.9848 10.9544 23.955C10.4262 23.9094 10.035 23.4442 10.0806 22.9159Z" fill="#7E848E"/>
</svg>
