<svg width="24" height="24" viewBox="0 0 24 24" fill="none" xmlns="http://www.w3.org/2000/svg">
<path fill-rule="evenodd" clip-rule="evenodd" d="M4.79289 4.79289C5.18342 4.40237 5.81658 4.40237 6.20711 4.79289L19.2071 17.7929C19.5976 18.1834 19.5976 18.8166 19.2071 19.2071C18.8166 19.5976 18.1834 19.5976 17.7929 19.2071L4.79289 6.20711C4.40237 5.81658 4.40237 5.18342 4.79289 4.79289Z" fill="currentColor"/>
<path fill-rule="evenodd" clip-rule="evenodd" d="M19.2071 4.79289C19.5976 5.18342 19.5976 5.81658 19.2071 6.20711L6.20711 19.2071C5.81658 19.5976 5.18342 19.5976 4.79289 19.2071C4.40237 18.8166 4.40237 18.1834 4.79289 17.7929L17.7929 4.79289C18.1834 4.40237 18.8166 4.40237 19.2071 4.79289Z" fill="currentColor"/>
</svg>
