<svg width="24" height="24" viewBox="0 0 24 24" fill="none" xmlns="http://www.w3.org/2000/svg">
<path fill-rule="evenodd" clip-rule="evenodd" d="M12 0C5.37264 0 0 5.37264 0 12C0 18.6274 5.37264 24 12 24C18.6274 24 24 18.6274 24 12C24 5.37264 18.6274 0 12 0ZM12.0009 0.960938C18.0885 0.960938 23.0409 5.91358 23.0409 12.0009C23.0409 18.0883 18.0885 23.0409 12.0009 23.0409C5.91358 23.0409 0.960938 18.0883 0.960938 12.0009C0.960938 5.91358 5.91358 0.960938 12.0009 0.960938ZM9.50174 17.2204L5.60006 13.4634C5.40926 13.2796 5.4035 12.9755 5.58734 12.7847C5.77142 12.5939 6.07526 12.5879 6.2663 12.772L9.48638 15.8728L17.5017 7.79055C17.6879 7.60215 17.9922 7.60095 18.1804 7.78767C18.3685 7.97439 18.37 8.27823 18.1833 8.46639L9.50174 17.2204Z" fill="currentColor"/>
</svg>
