<svg width="24" height="24" viewBox="0 0 24 24" fill="none" xmlns="http://www.w3.org/2000/svg">
<path fill-rule="evenodd" clip-rule="evenodd" d="M8.67861 2.42963C8.86549 2.16051 9.17235 2 9.5 2H14.4896C14.8168 2 15.1232 2.16002 15.3102 2.42846L16.0218 3.4501H18C19.1418 3.4501 20 4.36749 20 5.4601V7.2C20 7.75228 19.5523 8.2 19 8.2H5C4.44772 8.2 4 7.75228 4 7.2V5.4501C4 4.35086 4.87476 3.4401 6 3.4401H7.97695L8.67861 2.42963ZM10.0231 4L9.32139 5.01047C9.13451 5.27959 8.82765 5.4401 8.5 5.4401H6.001C6.00091 5.44044 6.00082 5.44082 6.00074 5.44125C6.00042 5.44286 6 5.44571 6 5.4501V6.2H18V5.4601C18 5.45596 17.9997 5.45266 17.9994 5.4501H15.4996C15.1725 5.4501 14.866 5.29008 14.679 5.02163L13.9675 4H10.0231ZM5 10C5 9.44772 5.44772 9 6 9H18C18.5523 9 19 9.44772 19 10V19C19 20.666 17.6882 22 16.0096 22H8C6.32772 22 5 20.6723 5 19V10ZM7 11V19C7 19.5677 7.43228 20 8 20H16.0096C16.571 20 17 19.574 17 19V11H7Z" fill="currentColor"/>
</svg>
