<svg width="24" height="24" viewBox="0 0 24 24" fill="none" xmlns="http://www.w3.org/2000/svg">
<path fill-rule="evenodd" clip-rule="evenodd" d="M0 12C0 5.37294 5.37294 0 12 0C18.6271 0 24 5.37294 24 12C24 18.6271 18.6271 24 12 24C5.37294 24 0 18.6271 0 12ZM13.8878 5.79298C12.246 5.79298 10.7495 6.41584 9.61896 7.43834C8.64806 7.46115 7.73957 7.55836 6.9523 7.71317C6.04981 7.88959 5.30333 8.14521 4.81848 8.42004C4.49445 8.60006 4.29643 8.79088 4.22562 8.91569C4.18722 8.9817 4.17642 9.0237 4.17522 9.05971C4.17642 9.09571 4.18722 9.13651 4.22562 9.20252C4.26763 9.27453 4.34683 9.36694 4.47165 9.46775C4.71767 9.66817 5.13651 9.88899 5.67777 10.0738C6.24302 10.2658 6.94149 10.4254 7.72277 10.5323C7.62556 10.8923 7.56076 11.2643 7.52595 11.6472C7.25473 11.6088 6.9895 11.5656 6.73507 11.5164C5.75098 11.3207 4.91089 11.0459 4.26763 10.6859C4.23642 10.6679 4.20522 10.6487 4.17522 10.6307V11.634C4.17522 11.6724 4.18242 11.7144 4.22562 11.7864C4.26763 11.856 4.34683 11.9508 4.47165 12.0504C4.71767 12.252 5.13651 12.4716 5.67777 12.6541C6.20462 12.8353 6.84668 12.9865 7.56436 13.0933C7.61956 13.499 7.71317 13.8926 7.84158 14.2706C7.45635 14.225 7.08671 14.1686 6.73507 14.099C5.75098 13.9034 4.91089 13.6286 4.26763 13.2685C4.22442 13.2433 4.18002 13.2181 4.13801 13.1917V14.0606C4.13921 14.105 4.14882 14.1542 4.19202 14.2322C4.23882 14.3066 4.32163 14.4026 4.44764 14.5059C4.69967 14.7123 5.12211 14.9319 5.66697 15.1179C6.41944 15.3759 7.40354 15.5716 8.51245 15.6676C8.76928 16.0708 9.07051 16.4428 9.40774 16.7765C8.44884 16.7453 7.54755 16.6469 6.74347 16.4884C5.76058 16.294 4.92409 16.0204 4.28683 15.6616C4.24963 15.6412 4.21242 15.6184 4.17522 15.5968V16.5641C4.17522 16.6013 4.18242 16.6445 4.22562 16.7165C4.26763 16.7861 4.34683 16.8797 4.47165 16.9793C4.71767 17.1821 5.13651 17.4005 5.67777 17.5854C6.76268 17.9574 8.32163 18.201 10.0462 18.1998C10.5359 18.1998 11.0099 18.1782 11.4647 18.1422C12.2124 18.4506 13.0297 18.6211 13.8878 18.6211C17.4149 18.6211 20.276 15.7504 20.276 12.2076C20.276 8.66487 17.4149 5.79298 13.8878 5.79298ZM13.8626 17.793C10.7819 17.793 8.27603 15.2883 8.27603 12.2076C8.27603 9.12571 10.7819 6.62106 13.8626 6.62106C16.9409 6.62106 19.4479 9.12571 19.4479 12.2076C19.4479 15.2883 16.9409 17.793 13.8626 17.793ZM13.8626 7.44914C11.2343 7.44914 9.10291 9.57936 9.10291 12.2076C9.10291 14.8359 11.2343 16.9661 13.8626 16.9661C16.4908 16.9661 18.6199 14.8359 18.6199 12.2076C18.6199 9.57936 16.4908 7.44914 13.8626 7.44914ZM15.6712 12.0408V12.8113H14.5575L14.441 13.0477V13.4209H15.6712V14.1914H14.441V15.3099H13.2577V14.1914H12.0372V13.4209H13.2577V13.0477L13.1497 12.8113H12.0372V12.0408H12.7765L11.586 9.51695H12.8461L13.8746 12.0408L14.8767 9.51695H16.138L14.9319 12.0408H15.6712Z" fill="#E8CBAB"/>
</svg>
