<svg width="24" height="24" viewBox="0 0 24 24" fill="none" xmlns="http://www.w3.org/2000/svg">
<path fill-rule="evenodd" clip-rule="evenodd" d="M0 12C0 5.37294 5.37294 0 12 0C18.6271 0 24 5.37294 24 12C24 18.6271 18.6271 24 12 24C5.37294 24 0 18.6271 0 12ZM7.28353 14.1926C7.51515 14.0906 7.75518 13.9826 7.9976 13.8746C8.35404 13.7138 8.72127 13.5494 9.06811 13.4005C9.0513 13.3621 9.0345 13.3261 9.0225 13.2961C8.94569 13.2841 8.87009 13.2733 8.79448 13.2625C8.80528 13.0009 8.9601 12.9865 9.0225 12.7873C9.07531 12.6109 9.0261 12.3828 9.11251 12.2196C9.17132 12.1068 9.30453 12.1068 9.37174 12.0096C9.43174 11.9208 9.47135 11.7672 9.49055 11.6592C9.50015 11.6016 9.50975 11.538 9.51695 11.4707C9.15452 11.1227 9.10891 10.447 9.07771 9.985C9.07531 9.92739 9.07171 9.87459 9.06811 9.83018C9.05011 9.62016 9.13291 9.46175 9.18332 9.36574C9.19292 9.34653 9.20492 9.32373 9.21092 9.30813C9.16892 9.09691 9.13891 8.89529 9.11971 8.69967L8.86049 8.65287L8.69607 8.49445C8.0336 8.06961 7.32313 8.36724 6.94149 8.52805C6.39304 8.71407 6.0462 9.52295 6.28863 10.7183C6.32943 10.9235 6.18062 11.0147 6.19022 11.1251C6.21182 11.3687 6.21662 11.9556 6.43744 12.0996C6.45785 12.114 6.61506 12.1536 6.61386 12.1428L6.67867 12.8545C6.73387 13.0129 6.86589 13.0309 6.90429 13.2529L6.73507 13.2961C6.65947 13.4653 6.52025 13.8038 6.37744 13.9058C6.25863 13.9406 6.13861 13.9742 6.0198 14.0078C5.60096 14.1866 5.13651 14.4014 4.71767 14.5851C4.33603 14.7531 3.87879 14.8119 3.74197 15.2283C3.74197 15.4323 3.72877 15.8356 3.72397 16.1836C3.72157 16.3864 3.87759 16.5509 4.07321 16.5509H5.26973C5.45935 16.5509 5.61416 16.3936 5.61776 16.1956V16.192C5.62496 15.9364 5.62976 15.6928 5.62976 15.5428V15.4611L5.65497 15.3843C5.87939 14.7075 6.47225 14.4938 6.94629 14.3222C7.06511 14.279 7.17912 14.2382 7.28353 14.1926ZM20.258 15.2283C20.12 14.8119 19.6652 14.7531 19.2859 14.5851C18.8683 14.4014 18.4062 14.1866 17.9898 14.0078C17.871 13.9742 17.7522 13.9406 17.6334 13.9058C17.4917 13.8038 17.3525 13.4653 17.2769 13.2961C17.2013 13.2841 17.1257 13.2733 17.0513 13.2625C17.0609 13.0009 17.2157 12.9865 17.2769 12.7873C17.3297 12.6109 17.2817 12.3828 17.3669 12.2196C17.4269 12.1068 17.559 12.1068 17.625 12.0096C17.685 11.9208 17.7246 11.7672 17.7438 11.6592C17.7786 11.4635 17.8086 11.1935 17.7186 10.9979C17.667 10.8851 17.6346 10.8743 17.6202 10.7387C17.6034 10.5731 17.667 10.0354 17.6694 9.91899C17.6766 9.61536 17.6694 9.34293 17.601 9.0477C17.601 9.0477 17.5146 8.78128 17.3813 8.70087L17.1161 8.65287L16.9529 8.49445C16.294 8.06961 15.5848 8.36724 15.2055 8.52805C14.9955 8.60006 14.8155 8.76568 14.6871 9.0093C14.6823 9.09091 14.6799 9.15572 14.6847 9.18932C14.6859 9.20732 14.6883 9.21812 14.6895 9.22412C14.6931 9.23252 14.6991 9.23972 14.7039 9.24932C14.7231 9.28533 14.7495 9.33213 14.7783 9.39694C14.9655 9.80378 14.9091 10.291 14.8515 10.6223C14.8239 10.7867 14.7531 11.0915 14.6067 11.3075C14.5683 11.3639 14.5251 11.4095 14.4818 11.4467C14.5058 11.706 14.5551 12.0024 14.7039 12.0996C14.7255 12.114 14.8803 12.1536 14.8803 12.1428C14.9019 12.3804 14.9235 12.6181 14.9451 12.8545C15.0003 13.0129 15.1311 13.0309 15.1695 13.2529L15.0015 13.2961C14.9883 13.3261 14.9727 13.3597 14.9547 13.3981C15.3015 13.547 15.6712 13.7126 16.0264 13.8734C16.27 13.9826 16.5089 14.0906 16.7381 14.1926C16.8425 14.2382 16.9553 14.279 17.0765 14.3222C17.5482 14.4938 18.1362 14.7075 18.3606 15.3843L18.3858 15.4611V15.5428C18.3858 15.6928 18.3906 15.9364 18.3966 16.192V16.1968C18.4014 16.3948 18.5551 16.5509 18.7447 16.5509H19.928C20.1224 16.5509 20.2784 16.3864 20.276 16.1836C20.2712 15.8356 20.258 15.4323 20.258 15.2283ZM16.7693 14.6259C16.1656 14.3678 15.4947 14.0678 14.8911 13.8182C14.7183 13.7702 14.5455 13.7234 14.375 13.6754C14.1686 13.5326 13.967 13.0573 13.8578 12.8221C13.7486 12.8053 13.6382 12.7897 13.529 12.7741C13.5446 12.408 13.769 12.3876 13.8578 12.108C13.9346 11.8632 13.865 11.5428 13.9874 11.3147C14.0738 11.1551 14.267 11.1539 14.3618 11.0195C14.4506 10.8971 14.5071 10.6811 14.5347 10.5299C14.5839 10.2538 14.6271 9.87699 14.4986 9.60216C14.4242 9.44615 14.3762 9.43054 14.3558 9.24092C14.3306 9.0081 14.423 8.25563 14.4266 8.09241C14.4362 7.66877 14.4266 7.28593 14.3258 6.87429C14.3258 6.87429 14.2022 6.49985 14.0102 6.38824L13.6262 6.32103L13.3873 6.09781C12.4296 5.50375 11.4035 5.92139 10.8551 6.14581C10.0618 6.40624 9.56136 7.53795 9.91059 9.21332C9.9706 9.49895 9.75578 9.62616 9.77138 9.78338C9.80138 10.1242 9.80738 10.9439 10.1266 11.1455C10.1566 11.1659 10.3822 11.2223 10.381 11.2067C10.4122 11.5392 10.4446 11.8716 10.4758 12.2028C10.5539 12.4248 10.7459 12.45 10.8011 12.7609L10.5575 12.8221C10.447 13.0573 10.2466 13.5326 10.0402 13.6754L9.52295 13.8182C8.92049 14.0678 8.24963 14.3678 7.64356 14.6259C7.09271 14.8599 6.43504 14.9439 6.23462 15.526C6.23462 15.8428 6.21182 16.4981 6.20702 17.0141C6.20462 17.2157 6.36664 17.3789 6.56586 17.3789H17.8482C18.0474 17.3789 18.2082 17.2157 18.207 17.0153C18.2022 16.498 18.1794 15.8428 18.1794 15.526C17.9802 14.9439 17.3201 14.8599 16.7693 14.6259Z" fill="#4975B5"/>
</svg>
