<svg width="24" height="24" viewBox="0 0 24 24" fill="none" xmlns="http://www.w3.org/2000/svg">
<path fill-rule="evenodd" clip-rule="evenodd" d="M0.000244141 11.9999C0.000244141 5.37287 5.37311 0 12.0001 0C18.6271 0 23.9999 5.37287 23.9999 11.9999C23.9999 18.6268 18.6271 23.9997 12.0001 23.9997C5.37311 23.9997 0.000244141 18.6268 0.000244141 11.9999ZM10.8192 10.1781C10.8192 10.4841 10.5792 10.7337 10.2827 10.7337C9.98752 10.7337 9.7463 10.4841 9.7463 10.1781V4.96603H8.45978V10.1781C8.45978 10.4841 8.21856 10.7337 7.92334 10.7337C7.62691 10.7337 7.38689 10.4841 7.38689 10.1781V4.96603H6.20599L6.24199 10.2897C6.24199 10.2897 6.27799 12.3263 8.17416 12.3263L8.13696 20.289H10.1039V12.2891C12.0349 12.2891 12.0001 10.2897 12.0001 10.2897V4.96603H10.8192V10.1781ZM13.655 9.85646C13.655 12.6203 14.6547 14.5345 14.6547 14.5345V20.2758H16.5521V4.96603C16.5521 4.96603 13.655 4.96603 13.655 9.85646Z" fill="#DF4C52"/>
</svg>