<svg width="24" height="24" viewBox="0 0 24 24" fill="none" xmlns="http://www.w3.org/2000/svg">
<path fill-rule="evenodd" clip-rule="evenodd" d="M0 12C0 5.37294 5.37294 0 12 0C18.6271 0 24 5.37294 24 12C24 18.6271 18.6271 24 12 24C5.37294 24 0 18.6271 0 12ZM10.8239 14.2358C10.8431 14.6055 11.1503 14.8971 11.5224 14.8971H12.9121C13.2853 14.8971 13.5926 14.6055 13.6106 14.2346L14.0678 4.86769C14.087 4.47045 13.769 4.13801 13.3693 4.13801H11.0435C10.6439 4.13801 10.3258 4.47165 10.3462 4.86889L10.8239 14.2358ZM11.988 20.6889H12.0108C13.2589 20.6889 14.069 19.7132 14.069 18.4122C14.0474 17.1893 13.3561 16.2844 12.288 16.1524C11.0039 15.9928 9.86019 17.1749 9.93459 18.5719C9.9994 19.7924 10.8131 20.6889 11.988 20.6889Z" fill="#ADC383"/>
</svg>
