<svg width="24" height="24" viewBox="0 0 24 24" fill="none" xmlns="http://www.w3.org/2000/svg">
<path fill-rule="evenodd" clip-rule="evenodd" d="M6.32583 22.5755C6.38944 22.5119 6.45185 22.4483 6.51545 22.3847C6.85029 22.0487 7.18632 21.7151 7.52115 21.3791C7.78998 21.1091 8.05521 20.8378 8.32523 20.569C8.58086 20.3146 8.84368 20.065 9.09931 19.8082C9.38974 19.5166 9.67537 19.2178 9.9658 18.9249C10.1866 18.7005 10.4122 18.4833 10.6367 18.2613C10.8935 18.0069 11.1503 17.7525 11.4059 17.4969C11.64 17.2629 11.874 17.0265 12.1068 16.7912C12.3216 16.5752 12.5341 16.3556 12.7513 16.1408C12.9697 15.9224 13.1905 15.7052 13.4101 15.488C13.631 15.2696 13.8506 15.0488 14.0726 14.8303C14.1758 14.7295 14.2874 14.6359 14.3894 14.5339C14.4542 14.4691 14.5035 14.3875 14.5695 14.3239C14.7627 14.1343 14.9619 13.9507 15.1563 13.7611C15.2511 13.6675 15.3339 13.5619 15.4287 13.4683C15.6004 13.3003 15.7816 13.1431 15.9472 12.969C16.0336 12.8754 16.1212 12.7818 16.204 12.6858C16.4464 12.4086 16.7237 12.1602 16.9841 11.8998C17.2169 11.6694 17.4461 11.4366 17.6778 11.205C17.9178 10.9673 18.1578 10.7297 18.3978 10.4909C18.6727 10.2173 18.9535 9.9497 19.2199 9.66768C19.4155 9.46007 19.6688 9.29807 19.7612 9.00285C19.7828 8.93565 19.8632 8.73284 19.8596 8.67403C19.8524 8.53603 19.8896 8.39562 19.8128 8.26241C19.7756 8.19761 19.772 8.11361 19.7432 8.0416C19.7252 7.9936 19.6952 7.948 19.6604 7.9096C19.5332 7.77279 19.4203 7.61798 19.2355 7.54838C19.1551 7.51718 19.0795 7.47157 18.9967 7.45597C18.9079 7.44037 18.8155 7.45237 18.7243 7.45237C18.5995 7.47157 18.4746 7.44517 18.3438 7.49317C18.183 7.55078 18.0522 7.63598 17.9358 7.74879C17.697 7.9816 17.4677 8.22521 17.2313 8.46162C17.0153 8.67763 16.7921 8.88884 16.5761 9.10486C16.3 9.38087 16.0288 9.66168 15.754 9.9389C15.5152 10.1789 15.2739 10.4165 15.0351 10.6565C14.8047 10.8881 14.5767 11.1234 14.3474 11.3538C14.1218 11.5794 13.895 11.8026 13.6694 12.0282C13.4593 12.2382 13.2541 12.4506 13.0429 12.657C12.9145 12.7818 12.7765 12.8946 12.6493 13.0183C12.5821 13.0831 12.5317 13.1635 12.4656 13.2283C12.3732 13.3207 12.2856 13.4155 12.1764 13.4935C12.0732 13.5679 12.0084 13.6939 11.9172 13.7887C11.8008 13.9111 11.6748 14.0251 11.5512 14.1427C11.3975 14.2891 11.2631 14.4547 11.0891 14.5819C11.0171 14.6335 10.9703 14.7199 10.9067 14.7847C10.6943 15.0044 10.4818 15.2252 10.267 15.4412C10.0462 15.662 9.82058 15.878 9.59976 16.0988C9.36574 16.3316 9.13771 16.5692 8.90489 16.802C8.68287 17.0253 8.45845 17.2473 8.23402 17.4681C8.0168 17.6841 7.79958 17.8989 7.58236 18.1149C7.38674 18.3105 7.19232 18.5073 6.9967 18.7029C6.77588 18.9237 6.55626 19.1434 6.33543 19.3618C6.20222 19.4938 6.06661 19.6222 5.93459 19.753C5.76418 19.9246 5.59736 20.0998 5.42574 20.2714C5.29733 20.401 5.16172 20.527 5.0321 20.6578C4.90009 20.791 4.77048 20.9302 4.63726 21.0635C4.56046 21.1403 4.48365 21.2159 4.40564 21.2915C1.71617 19.0906 0 15.746 0 11.9994C0 5.37387 5.37294 0 12 0C18.6271 0 24 5.37387 24 11.9994C24 18.6273 18.6271 24 12 24C9.94779 24 8.0156 23.484 6.32583 22.5755ZM8.49685 9.09886V9.10365C8.60966 9.09886 8.72487 9.10246 8.83528 9.08445C8.9661 9.06285 9.09331 9.02085 9.22052 8.98485C9.27573 8.97045 9.32853 8.95125 9.38254 8.93445C9.45335 8.91165 9.52655 8.89244 9.59736 8.86844C9.65497 8.84804 9.71377 8.82644 9.76658 8.79524C9.87579 8.73044 9.9814 8.65963 10.0858 8.58883C10.1878 8.51923 10.2982 8.45682 10.387 8.37162C10.5227 8.24321 10.6427 8.09921 10.7687 7.9612C10.8311 7.89399 10.9019 7.83039 10.9523 7.75479C11.0423 7.61918 11.1179 7.47517 11.2019 7.33597C11.2691 7.22556 11.3471 7.12356 11.4083 7.01075C11.4935 6.85234 11.5632 6.68793 11.646 6.52833C11.7132 6.39872 11.79 6.27271 11.8644 6.14551C11.9496 6.0027 12.0264 5.85629 12.1248 5.72429C12.24 5.56948 12.3708 5.42307 12.5413 5.32467C12.6589 5.25626 12.7789 5.18426 12.9205 5.19386C13.1029 5.20586 13.2781 5.16986 13.4533 5.12906C13.5086 5.11586 13.5698 5.09065 13.6106 5.05105C13.7546 4.91785 13.9202 4.80504 13.9802 4.59383C14.0138 4.47622 14.0438 4.35982 14.0678 4.24221C14.0726 4.22181 14.0654 4.19781 14.0594 4.17621C14.0474 4.12461 14.0342 4.0742 14.0186 4.025C13.9958 3.953 13.9742 3.88099 13.9454 3.81259C13.9286 3.77299 13.9034 3.73339 13.8746 3.70219C13.7834 3.60618 13.7078 3.49337 13.5746 3.44777C13.4989 3.42257 13.4281 3.37817 13.3513 3.35777C13.2913 3.34217 13.2265 3.35297 13.1641 3.34577C13.1269 3.34097 13.0885 3.30857 13.0537 3.31097C12.9529 3.31937 12.8545 3.34097 12.7537 3.35297C12.6865 3.36137 12.6145 3.35297 12.5485 3.36857C12.4308 3.39497 12.3168 3.43457 12.2016 3.46937C12.1272 3.49217 12.054 3.51498 11.9808 3.54138C11.9292 3.55938 11.8776 3.57858 11.8308 3.60618C11.7204 3.67098 11.6112 3.74059 11.5019 3.81019C11.4011 3.87499 11.2883 3.9314 11.2019 4.0142C10.9787 4.22421 10.7711 4.44982 10.6103 4.71744C10.5299 4.84824 10.4254 4.96345 10.3474 5.09545C10.2586 5.24426 10.1878 5.40387 10.1074 5.55628C10.0798 5.60908 10.0438 5.65588 10.0162 5.70749C9.9718 5.79149 9.93099 5.87669 9.88539 5.9619C9.83738 6.0519 9.78818 6.14071 9.73657 6.22951C9.69457 6.30272 9.65137 6.37472 9.60696 6.44552C9.55896 6.52473 9.51455 6.60753 9.45935 6.68073C9.40174 6.75874 9.33093 6.82594 9.26613 6.89794C9.13891 7.03595 8.9853 7.14396 8.81128 7.19556C8.65647 7.24116 8.48845 7.24116 8.32643 7.26036C8.29883 7.26396 8.27003 7.25676 8.24242 7.26396C8.15361 7.28316 8.06481 7.30237 7.9772 7.32997C7.93399 7.34317 7.88479 7.36357 7.85599 7.39837C7.75278 7.52078 7.59916 7.60118 7.55476 7.77519C7.52835 7.87599 7.47195 7.9708 7.45875 8.0716C7.44314 8.20241 7.43714 8.33922 7.50675 8.46522C7.55836 8.55883 7.58716 8.66683 7.65076 8.74844C7.71437 8.82764 7.78998 8.89845 7.88359 8.95365C8.0156 9.03165 8.14401 9.10006 8.29883 9.09886H8.49685ZM15.724 9.22606C15.5272 9.02085 15.3423 8.82164 15.1503 8.62603C14.9547 8.42682 14.7519 8.23361 14.5551 8.0356C14.3846 7.86279 14.2178 7.68518 14.0474 7.51238C13.8434 7.30597 13.6346 7.10316 13.4329 6.89434C13.2649 6.72034 13.0861 6.57753 12.8269 6.63273C12.7597 6.64833 12.6925 6.68193 12.6373 6.72394C12.5437 6.79594 12.4956 6.89794 12.444 7.00955C12.3744 7.16196 12.4416 7.27236 12.4872 7.38157C12.5293 7.48237 12.6241 7.56398 12.7033 7.64678C12.8593 7.81239 13.0213 7.9744 13.1809 8.13521C13.3465 8.30322 13.5134 8.46882 13.679 8.63683C13.8566 8.81804 14.0306 9.00165 14.2094 9.18166C14.4518 9.42527 14.6955 9.66768 14.9415 9.9053C14.9631 9.9269 15.0279 9.9401 15.0423 9.9245C15.2715 9.69648 15.4959 9.46247 15.724 9.22606ZM13.7798 11.1726C13.829 11.1246 13.8758 11.079 13.9214 11.0346C14.1026 10.8545 14.2862 10.6769 14.465 10.4945C14.483 10.4753 14.4866 10.4273 14.4782 10.3973C14.4734 10.3733 14.441 10.3541 14.4206 10.3325C14.1734 10.0937 13.925 9.85489 13.6802 9.61248C13.4605 9.39647 13.2481 9.17326 13.0273 8.95605C12.7813 8.71364 12.5317 8.47482 12.282 8.23721C12.1452 8.10641 12.0216 7.972 11.832 7.89159C11.67 7.82319 11.5536 7.89399 11.4371 7.9336C11.3231 7.9732 11.2403 8.09921 11.1899 8.22041C11.1347 8.35242 11.2199 8.66563 11.3255 8.76524C11.4383 8.87204 11.5476 8.98125 11.658 9.09046C11.8176 9.25006 11.976 9.40967 12.1368 9.56808C12.3048 9.73369 12.4776 9.89689 12.6469 10.0625C12.8485 10.2605 13.0453 10.4621 13.2457 10.6601C13.4197 10.8305 13.5986 10.9986 13.7798 11.1726ZM10.4638 9.10845C10.4254 9.10845 10.381 9.10125 10.3414 9.10966C10.3054 9.11806 10.2742 9.14446 10.2382 9.15886C10.0642 9.22966 9.92619 9.42407 9.93099 9.60768C9.93219 9.67008 9.9598 9.73129 9.9814 9.79129C10.0018 9.85129 10.0174 9.9209 10.0582 9.9641C10.1878 10.1069 10.3258 10.2413 10.4638 10.3757C10.6511 10.5581 10.8443 10.7357 11.0291 10.9217C11.2691 11.163 11.5032 11.4126 11.742 11.655C11.9712 11.8866 12.2028 12.117 12.4356 12.345C12.468 12.3762 12.5125 12.4134 12.5521 12.4134C12.5845 12.4146 12.6217 12.3678 12.6517 12.3378C12.8221 12.1722 12.9877 12.0018 13.1593 11.8374C13.2625 11.739 13.2721 11.697 13.1689 11.5926C13.0357 11.4558 12.8917 11.3286 12.7573 11.193C12.5797 11.0142 12.4068 10.8317 12.2304 10.6517C12.0144 10.4309 11.7972 10.2101 11.5788 9.9905C11.3531 9.76369 11.1323 9.53328 10.8995 9.31367C10.7807 9.20206 10.6571 9.07845 10.4638 9.10845ZM14.1674 5.37987C14.123 5.39787 14.0738 5.43027 14.021 5.43747C13.8242 5.46147 13.7294 5.61388 13.6814 5.76389C13.6202 5.9559 13.667 6.15151 13.8254 6.30272C13.9154 6.39032 14.003 6.47912 14.0918 6.56913C14.363 6.84394 14.6331 7.11996 14.9067 7.39357C15.3267 7.81599 15.7504 8.23481 16.1716 8.65483C16.2208 8.70524 16.2832 8.69923 16.3324 8.65003C16.5161 8.46522 16.7009 8.28161 16.8881 8.10281C16.9817 8.014 16.9877 7.9996 16.9205 7.9312C16.7789 7.78479 16.6409 7.63598 16.4993 7.49197C16.3576 7.34917 16.2148 7.20876 16.072 7.06835C15.9064 6.90515 15.7408 6.74314 15.5764 6.57873C15.4323 6.43472 15.2931 6.28711 15.1491 6.14431C14.9643 5.9595 14.7747 5.77949 14.5911 5.59468C14.4758 5.47707 14.3342 5.42187 14.1674 5.37987Z" fill="#83C391"/>
</svg>
