<svg width="24" height="24" viewBox="0 0 24 24" fill="none" xmlns="http://www.w3.org/2000/svg">
<path fill-rule="evenodd" clip-rule="evenodd" d="M0 12C0 5.37294 5.37294 0 12 0C18.6271 0 24 5.37294 24 12C24 18.6271 18.6271 24 12 24C5.37294 24 0 18.6271 0 12ZM18.6211 7.63996C18.6211 6.62226 17.7954 5.79298 16.7801 5.79298H4.9649V7.21032H5.08971C5.31293 7.21032 5.49295 7.39154 5.49295 7.61476C5.49295 7.83798 5.31293 8.0192 5.08971 8.0192H4.9649V15.64H5.08971C5.31293 15.64 5.49295 15.8212 5.49295 16.0444C5.49295 16.2664 5.31293 16.4488 5.08971 16.4488H4.9649V17.793H16.7801C17.7954 17.793 18.6211 16.9649 18.6211 15.9484V13.763H15.9556C15.3723 13.763 14.8971 13.2865 14.8971 12.6997V10.8875C14.8971 10.2994 15.3723 9.82418 15.9556 9.82418H18.6211V7.63996ZM15.7444 15.6952H16.5113V14.9103C16.5113 14.6739 16.7045 14.483 16.9445 14.483C17.1845 14.483 17.3789 14.6739 17.3789 14.9103V16.0276C17.3789 16.0528 17.3777 16.0732 17.3729 16.0888C17.3405 16.3492 17.1209 16.5521 16.8497 16.5521H15.7444C15.5044 16.5521 15.3099 16.3588 15.3099 16.1236C15.3099 15.8872 15.5044 15.6952 15.7444 15.6952C15.7444 15.6952 15.5044 15.6952 15.7444 15.6952ZM7.44794 16.5521H6.61986C6.39184 16.5521 6.20702 16.366 6.20702 16.138C6.20702 15.9088 6.39184 15.724 6.61986 15.724H7.44794C7.67597 15.724 7.86199 15.9088 7.86199 16.138C7.86199 16.366 7.67597 16.5521 7.44794 16.5521ZM7.44794 7.86199H6.61986C6.39184 7.86199 6.20702 7.67597 6.20702 7.44914C6.20702 7.21992 6.39184 7.0351 6.61986 7.0351H7.44794C7.67597 7.0351 7.86199 7.21992 7.86199 7.44914C7.86199 7.67597 7.67597 7.86199 7.44794 7.86199ZM9.51695 16.5521H8.68887C8.46205 16.5521 8.27603 16.366 8.27603 16.138C8.27603 15.9088 8.46205 15.724 8.68887 15.724H9.51695C9.74617 15.724 9.93099 15.9088 9.93099 16.138C9.93099 16.366 9.74617 16.5521 9.51695 16.5521ZM9.51695 7.86199H8.68887C8.46205 7.86199 8.27603 7.67597 8.27603 7.44914C8.27603 7.21992 8.46205 7.0351 8.68887 7.0351H9.51695C9.74617 7.0351 9.93099 7.21992 9.93099 7.44914C9.93099 7.67597 9.74617 7.86199 9.51695 7.86199ZM11.9988 16.5521H11.1731C10.9451 16.5521 10.7579 16.366 10.7579 16.138C10.7579 15.9088 10.9451 15.724 11.1731 15.724H11.9988C12.228 15.724 12.414 15.9088 12.414 16.138C12.414 16.366 12.228 16.5521 11.9988 16.5521ZM11.9988 7.86199H11.1731C10.9451 7.86199 10.7579 7.67597 10.7579 7.44914C10.7579 7.21992 10.9451 7.0351 11.1731 7.0351H11.9988C12.228 7.0351 12.414 7.21992 12.414 7.44914C12.414 7.67597 12.228 7.86199 11.9988 7.86199ZM14.0678 16.5521H13.2409C13.0117 16.5521 12.8269 16.366 12.8269 16.138C12.8269 15.9088 13.0117 15.724 13.2409 15.724H14.0678C14.297 15.724 14.4818 15.9088 14.4818 16.138C14.4818 16.366 14.297 16.5521 14.0678 16.5521ZM14.0678 7.86199H13.2409C13.0117 7.86199 12.8269 7.67597 12.8269 7.44914C12.8269 7.21992 13.0117 7.0351 13.2409 7.0351H14.0678C14.297 7.0351 14.4818 7.21992 14.4818 7.44914C14.4818 7.67597 14.297 7.86199 14.0678 7.86199ZM17.3789 8.67447C17.3789 8.91209 17.1845 9.10291 16.9445 9.10291C16.7045 9.10291 16.5113 8.91209 16.5113 8.67447V7.89079H15.7444C15.5044 7.89079 15.3099 7.69877 15.3099 7.46235C15.3099 7.22592 15.5044 7.0351 15.7444 7.0351H16.8497C17.1209 7.0351 17.3405 7.23552 17.3729 7.49595C17.3777 7.51275 17.3789 7.53195 17.3789 7.55596V8.67447Z" fill="#D3955F"/>
</svg>
