<svg width="24" height="24" viewBox="0 0 24 24" fill="none" xmlns="http://www.w3.org/2000/svg">
<path fill-rule="evenodd" clip-rule="evenodd" d="M0 12C0 5.37294 5.37294 0 12 0C18.6271 0 24 5.37294 24 12C24 18.6271 18.6271 24 12 24C5.37294 24 0 18.6271 0 12ZM6.32583 17.793H17.667C17.9586 17.793 18.195 17.5518 18.195 17.2541L18.2058 9.64417C18.207 9.34653 17.9706 9.10411 17.679 9.10411H6.32103C6.0294 9.10411 5.79298 9.34534 5.79298 9.64417L5.79778 17.2541C5.79898 17.5518 6.0342 17.793 6.32583 17.793ZM9.64656 12.4224H10.6367C10.9367 12.4224 11.1803 12.1788 11.1803 11.8788V10.8887C11.1803 10.5887 11.4239 10.345 11.724 10.345H12.276C12.5761 10.345 12.8197 10.5887 12.8197 10.8887V11.8788C12.8197 12.1788 13.0621 12.4224 13.3621 12.4224H14.3522C14.6523 12.4224 14.8959 12.6661 14.8959 12.9661V13.5182C14.8959 13.8182 14.6523 14.0606 14.3522 14.0606H13.3621C13.0621 14.0606 12.8197 14.3042 12.8197 14.6043V15.5944C12.8197 15.8956 12.5761 16.138 12.276 16.138H11.724C11.4239 16.138 11.1803 15.8956 11.1803 15.5944V14.6043C11.1803 14.3042 10.9367 14.0606 10.6367 14.0606H9.64656C9.34653 14.0606 9.10291 13.8182 9.10291 13.517V12.9661C9.10291 12.6661 9.34653 12.4224 9.64656 12.4224ZM17.5314 7.29193H15.6232C15.3831 7.29193 15.1611 7.16352 15.0411 6.94989C14.6211 6.19982 13.997 5.37894 13.4317 5.37894H10.5335C10.0006 5.37894 9.43054 6.15782 9.0117 6.93909C8.89529 7.15752 8.66847 7.29193 8.42484 7.29193H6.46745C6.09541 7.29193 5.79298 7.60156 5.79298 7.9844V7.9988C5.79298 8.38044 6.09541 8.69007 6.46745 8.69007H17.5314C17.9034 8.69007 18.2058 8.38044 18.2058 7.9988V7.9844C18.207 7.60156 17.9046 7.29193 17.5314 7.29193ZM12.7777 7.44914H11.2223C10.9655 7.44914 10.7579 7.06751 10.7579 6.82748C10.7579 6.58866 10.9655 6.20702 11.2223 6.20702H12.7777C13.0333 6.20702 13.2409 6.58866 13.2409 6.82748C13.2409 7.06751 13.0333 7.44914 12.7777 7.44914Z" fill="#EB588F"/>
</svg>
