<svg width="24" height="24" viewBox="0 0 24 24" fill="none" xmlns="http://www.w3.org/2000/svg">
<path fill-rule="evenodd" clip-rule="evenodd" d="M0 12C0 5.37294 5.37294 0 12 0C18.6271 0 24 5.37294 24 12C24 18.6271 18.6271 24 12 24C5.37294 24 0 18.6271 0 12ZM16.5521 14.8971C15.8656 14.8971 15.3099 14.3414 15.3099 13.655C15.3099 12.9697 15.8656 12.414 16.5521 12.414C17.2373 12.414 17.793 12.9697 17.793 13.655C17.793 14.3414 17.2373 14.8971 16.5521 14.8971ZM8.38044 10.7579C8.06241 10.7735 7.86199 10.6451 7.86199 10.0918V9.22892C7.86199 8.018 8.78848 7.0351 9.93099 7.0351H14.069C15.2115 7.0351 16.138 8.018 16.138 9.22892V10.0918C16.138 10.6283 15.9496 10.7627 15.6472 10.7579C14.6211 10.5323 13.3297 10.3258 12.0324 10.3258C10.7267 10.3258 9.41974 10.5323 8.38044 10.7579ZM7.86199 14.8971C7.17672 14.8971 6.62106 14.3402 6.62106 13.655C6.62106 12.9697 7.17672 12.414 7.86199 12.414C8.54725 12.414 9.10291 12.9697 9.10291 13.655C9.10291 14.3402 8.54725 14.8971 7.86199 14.8971ZM18.4422 11.6196C18.4422 11.6016 18.4506 11.5884 18.4506 11.5728L17.553 9.20252C16.9541 7.58956 15.892 6.20702 14.1278 6.20702H9.87219C8.10921 6.20702 7.0459 7.19472 6.44825 9.13771L5.65017 11.4743C5.65017 11.5056 5.66337 11.5344 5.66457 11.5668C5.20252 11.7816 4.55086 12.15 4.55086 12.5269V14.6331C4.55086 15.2163 5.0273 15.6868 5.61536 15.6868V16.7405C5.61536 17.3225 6.09181 17.793 6.67867 17.793C7.26793 17.793 7.74317 17.3225 7.74317 16.7405V15.6868H16.2556V16.7405C16.2556 17.3225 16.7321 17.793 17.3201 17.793C17.9082 17.793 18.3834 17.3225 18.3834 16.7405V15.6868C18.9727 15.6868 19.4479 15.2163 19.4479 14.6331V12.5269C19.4479 12.1788 18.8911 11.8392 18.4422 11.6196Z" fill="#4C4E51"/>
</svg>
