<svg width="24" height="24" viewBox="0 0 24 24" fill="none" xmlns="http://www.w3.org/2000/svg">
<path fill-rule="evenodd" clip-rule="evenodd" d="M0 12C0 5.37294 5.37294 0 12 0C18.6271 0 24 5.37294 24 12C24 18.6271 18.6271 24 12 24C5.37294 24 0 18.6271 0 12ZM16.3288 5.94059L14.5887 5.37894C14.4242 5.80378 14.1518 6.16982 13.8134 6.44944C13.2673 6.90429 12.5521 7.15992 11.7924 7.15992C11.0315 7.15992 10.3186 6.90429 9.77378 6.44944C9.43534 6.17102 9.16172 5.80378 8.9973 5.37894L7.25713 5.94059L4.13801 8.61206L5.37894 10.2658H7.38194V19.0339H16.2028V10.2658H18.2046L19.4479 8.61206L16.3288 5.94059Z" fill="#FBB44C"/>
</svg>
