<svg width="24" height="24" viewBox="0 0 24 24" fill="none" xmlns="http://www.w3.org/2000/svg">
<path fill-rule="evenodd" clip-rule="evenodd" d="M0 12C0 5.37294 5.37294 0 12 0C18.6271 0 24 5.37294 24 12C24 18.6271 18.6271 24 12 24C5.37294 24 0 18.6271 0 12ZM12.2064 13.7198C11.9736 13.7198 11.7396 13.7006 11.5092 13.6598C11.3339 13.6286 11.1731 13.751 11.1731 13.913V20.4296C11.1731 20.5737 11.3003 20.6889 11.4587 20.6889H12.9541C13.1125 20.6889 13.2409 20.5737 13.2409 20.4296V13.913C13.2409 13.751 13.0801 13.6286 12.9037 13.6598C12.6757 13.6994 12.4428 13.7198 12.21 13.7198H12.2064ZM12.2064 8.27603C11.6232 8.27603 11.0435 8.49685 10.5983 8.94209C10.153 9.38734 9.93099 9.9646 9.93099 10.5467C9.93219 11.1335 10.1518 11.7144 10.5983 12.1608C11.0435 12.6061 11.6232 12.8257 12.2064 12.8269C12.7909 12.8257 13.3705 12.6061 13.8158 12.1608C14.261 11.7144 14.4818 11.1359 14.483 10.5515C14.4818 9.967 14.261 9.38854 13.8158 8.94209C13.3705 8.49685 12.7909 8.27603 12.2064 8.27603ZM7.9952 8.0384C7.66517 7.76838 7.15032 7.81998 6.84548 8.11401C6.14581 8.78968 5.79178 9.67177 5.79298 10.5467C5.79178 11.4383 6.15902 12.3372 6.88629 13.0177C7.0459 13.1665 7.25353 13.2409 7.46115 13.2409C7.66997 13.2409 7.87879 13.1665 8.0372 13.0177C8.35524 12.7201 8.35524 12.2364 8.0372 11.9388C7.62556 11.5524 7.42274 11.0531 7.42274 10.5467C7.42274 10.0402 7.62556 9.54095 8.0372 9.15452C8.36964 8.84368 8.35524 8.33123 7.9952 8.0384ZM16.006 8.0372C15.6448 8.33003 15.6304 8.84368 15.9628 9.15331C16.3744 9.53975 16.5773 10.039 16.5785 10.5467C16.5773 11.0327 16.39 11.514 16.0084 11.8944C15.7084 12.1932 15.6316 12.6565 15.9148 12.9697C16.0792 13.1497 16.3084 13.2409 16.5377 13.2409C16.7477 13.2409 16.9553 13.1665 17.1149 13.0177C17.841 12.3372 18.2082 11.4383 18.207 10.5467C18.2082 9.67177 17.8554 8.78968 17.1557 8.11521C16.8521 7.81998 16.336 7.76838 16.006 8.0372ZM5.57456 13.2037C4.78488 12.4128 4.39244 11.3819 4.39124 10.345C4.39244 9.31773 4.77648 8.29763 5.55056 7.50915C5.79298 7.26193 5.87099 6.87429 5.69217 6.57666C5.42814 6.13981 4.85329 6.09061 4.51845 6.42544C3.43834 7.50555 2.89589 8.92889 2.89709 10.345C2.89589 11.76 3.43834 13.1833 4.51725 14.2634C4.66247 14.4086 4.85449 14.483 5.0465 14.483C5.23732 14.483 5.42814 14.4098 5.57456 14.2634C5.86619 13.9718 5.86619 13.4965 5.57456 13.2037ZM19.5272 6.46025C19.2463 6.17102 18.7771 6.11221 18.4698 6.37504C18.1338 6.66307 18.1206 7.16832 18.4266 7.47555V7.47435C19.2163 8.26763 19.6076 9.29973 19.6088 10.339C19.6076 11.3627 19.2283 12.3792 18.4602 13.1677C18.1554 13.4797 18.135 14.0126 18.465 14.3006C18.6055 14.4218 18.7795 14.483 18.9547 14.483C19.1467 14.483 19.3375 14.4098 19.4827 14.2634C20.5617 13.1809 21.1041 11.7564 21.1029 10.339C21.1041 8.94089 20.5773 7.53555 19.5272 6.46025Z" fill="#8A49B5"/>
</svg>
