<svg width="24" height="24" viewBox="0 0 24 24" fill="none" xmlns="http://www.w3.org/2000/svg">
<path fill-rule="evenodd" clip-rule="evenodd" d="M0 12C0 5.37294 5.37294 0 12 0C18.6271 0 24 5.37294 24 12C24 18.6271 18.6271 24 12 24C5.37294 24 0 18.6271 0 12ZM7.88719 5.64416C7.46955 5.64656 7.08551 5.74977 6.77588 5.94299C6.62106 6.0414 6.48185 6.16502 6.37864 6.31983C6.27423 6.47465 6.20582 6.66547 6.20702 6.86829V17.1929C6.20582 17.3969 6.27423 17.5878 6.37864 17.7414C6.53585 17.9742 6.76388 18.1362 7.0219 18.2466C7.27633 18.3558 7.56556 18.4146 7.87399 18.417L15.8092 19.0351V17.535L17.3789 17.4617V5.37894L7.88719 5.64416ZM12.3408 13.655L9.10291 13.3957L9.17612 12.414L12.414 12.6745L12.3408 13.655ZM13.9922 10.7591L8.27603 10.3606L8.35284 9.51815L14.069 9.91539L13.9922 10.7591ZM16.5521 16.5197L15.8356 16.5521V7.78278L7.86919 7.17312C7.60636 7.14912 7.34953 7.09991 7.20432 7.0075C7.13111 6.9619 7.08551 6.91509 7.06151 6.87909C7.0375 6.84308 7.0351 6.82628 7.0351 6.80948C7.0351 6.79268 7.0375 6.77468 7.06151 6.73987C7.09511 6.68707 7.18752 6.60546 7.33033 6.54665C7.47315 6.48545 7.66157 6.44584 7.86919 6.44584H7.87279L16.5521 6.20702V16.5197Z" fill="#6F85C2"/>
</svg>
