<svg width="24" height="24" viewBox="0 0 24 24" fill="none" xmlns="http://www.w3.org/2000/svg">
<path fill-rule="evenodd" clip-rule="evenodd" d="M0 12C0 5.37294 5.37294 0 12 0C18.6271 0 24 5.37294 24 12C24 18.6271 18.6271 24 12 24C5.37294 24 0 18.6271 0 12ZM18.6211 14.483C19.9916 14.483 21.1029 13.3717 21.1029 12C21.1029 10.6283 19.9916 9.51695 18.6211 9.51695C17.2493 9.51695 16.138 10.6283 16.138 12C16.138 13.3717 17.2493 14.483 18.6211 14.483ZM12 14.483C13.3705 14.483 14.4818 13.3717 14.4818 12C14.4818 10.6283 13.3705 9.51695 12 9.51695C10.6283 9.51695 9.51695 10.6283 9.51695 12C9.51695 13.3717 10.6283 14.483 12 14.483ZM5.37894 14.483C6.75068 14.483 7.86199 13.3717 7.86199 12C7.86199 10.6283 6.75068 9.51695 5.37894 9.51695C4.0072 9.51695 2.89709 10.6283 2.89709 12C2.89709 13.3717 4.0072 14.483 5.37894 14.483Z" fill="#BDB9B4"/>
</svg>
