<svg width="24" height="24" viewBox="0 0 24 24" fill="none" xmlns="http://www.w3.org/2000/svg">
<path fill-rule="evenodd" clip-rule="evenodd" d="M0 12C0 5.37294 5.37294 0 12 0C18.6271 0 24 5.37294 24 12C24 18.6271 18.6271 24 12 24C5.37294 24 0 18.6271 0 12ZM16.7705 15.3267V5.65017C16.7705 5.65017 16.5533 3.08431 11.844 3.08431C7.13351 3.08431 6.91749 5.64896 6.91749 5.64896V15.3267C6.91749 15.868 7.32553 16.3048 7.82958 16.3048H9.80738L7.0315 20.0744H8.57606L9.05851 19.4179H14.7027L15.1827 20.0744H16.7213L13.9694 16.3048H15.8572C16.3624 16.3048 16.7705 15.868 16.7705 15.3267C16.7705 15.868 16.7705 15.3267 16.7705 15.3267ZM9.973 18.1758L10.4686 17.5049H13.3045L13.7966 18.1758H9.973ZM11.1743 3.78998H12.5137C12.9325 3.78998 13.2733 4.12961 13.2733 4.54845C13.2733 4.9661 12.9325 5.30573 12.5137 5.30573H11.1743C10.7543 5.30573 10.4146 4.9661 10.4146 4.54845C10.4146 4.12961 10.7543 3.78998 11.1743 3.78998C11.1743 3.78998 10.7543 3.78998 11.1743 3.78998ZM8.27123 6.64986C8.27123 6.38704 8.53405 6.17462 8.86049 6.17462H14.8287C15.1539 6.17462 15.4179 6.38704 15.4179 6.64986V9.9802C15.4179 9.9802 14.8851 10.8959 11.844 10.8959C8.80288 10.8959 8.27123 9.9802 8.27123 9.9802V6.64986ZM8.25082 14.045C8.25082 13.4341 8.74887 12.9385 9.35974 12.9385C9.973 12.9385 10.4686 13.4341 10.4686 14.045C10.4686 14.6559 9.973 15.1503 9.35974 15.1503C8.74887 15.1503 8.25082 14.6559 8.25082 14.045C8.25082 14.6559 8.25082 14.045 8.25082 14.045ZM14.4122 15.1503C13.8002 15.1503 13.3045 14.6559 13.3045 14.045C13.3045 13.4341 13.8002 12.9385 14.4122 12.9385C15.0243 12.9385 15.5212 13.4341 15.5212 14.045C15.5212 14.6559 15.0243 15.1503 14.4122 15.1503Z" fill="#4B4560"/>
</svg>
