<svg width="24" height="24" viewBox="0 0 24 24" fill="none" xmlns="http://www.w3.org/2000/svg">
<path fill-rule="evenodd" clip-rule="evenodd" d="M0 12C0 5.37294 5.37294 0 12 0C18.6271 0 24 5.37294 24 12C24 18.6271 18.6271 24 12 24C5.37294 24 0 18.6271 0 12ZM20.7177 10.3846H16.9049V9.65016H11.6772V10.3846H9.06811C6.36424 10.3894 4.15482 12.4296 3.94599 15.0207H6.75668C6.9511 13.9466 7.91959 13.1125 9.06811 13.1101H11.6772V13.8962H16.9049V13.1101H20.7177V10.3846ZM3.57516 18.069H7.21512V16.1368H3.57516V18.069ZM16.054 7.24152C16.054 6.30903 15.2799 5.55175 14.3258 5.55175C13.3705 5.55175 12.5965 6.30903 12.5965 7.24152C12.5965 8.17402 13.3705 8.93129 14.3258 8.93129C15.2799 8.93129 16.054 8.17402 16.054 7.24152ZM12.2076 6.42784H10.2922C9.76178 6.42784 9.33093 6.84788 9.33093 7.36754C9.33093 7.88479 9.76178 8.30483 10.2922 8.30483H12.3336C12.1548 7.988 12.0456 7.62796 12.0456 7.24152C12.0456 6.9523 12.1056 6.68107 12.2076 6.42784ZM18.4866 6.42784H16.444C16.5449 6.68107 16.6049 6.9523 16.6049 7.24152C16.6049 7.62796 16.4956 7.988 16.318 8.30483H18.4866C19.0183 8.30483 19.4479 7.88479 19.4479 7.36754C19.4479 6.84788 19.0183 6.42784 18.4866 6.42784Z" fill="#2EAAD9"/>
</svg>
