<svg width="24" height="24" viewBox="0 0 24 24" fill="none" xmlns="http://www.w3.org/2000/svg">
<path fill-rule="evenodd" clip-rule="evenodd" d="M0 12C0 5.37294 5.37294 0 12 0C18.6271 0 24 5.37294 24 12C24 18.6271 18.6271 24 12 24C5.37294 24 0 18.6271 0 12ZM12.9721 5.16532C12.5749 4.34803 11.4263 4.34803 11.0279 5.16532L9.56616 8.17042C9.40774 8.49565 9.10291 8.72007 8.75008 8.77168L5.48095 9.25413C4.59166 9.38494 4.23642 10.4938 4.87969 11.1299L7.24512 13.4689C7.50075 13.7222 7.61716 14.0858 7.55716 14.4434L6.9991 17.7462C6.84668 18.6451 7.77678 19.3291 8.57246 18.9055L11.4959 17.3465C11.8116 17.1773 12.1884 17.1773 12.5041 17.3465L15.4275 18.9055C16.2232 19.3291 17.1521 18.6451 17.0009 17.7462L16.4428 14.4434C16.3816 14.0858 16.4993 13.7222 16.7549 13.4689L19.1203 11.1299C19.7624 10.4938 19.4083 9.38494 18.5191 9.25413L15.2511 8.77168C14.8971 8.72007 14.5923 8.49565 14.4338 8.17042L12.9721 5.16532Z" fill="#EB588F"/>
</svg>
