<svg width="24" height="24" viewBox="0 0 24 24" fill="none" xmlns="http://www.w3.org/2000/svg">
<path fill-rule="evenodd" clip-rule="evenodd" d="M15.7796 6.74766L18.6146 3.91266C19.0346 3.49266 19.6646 3.49266 20.0846 3.91266C20.5046 4.33266 20.5046 4.96266 20.0846 5.38266L5.38461 20.0827C5.17461 20.2927 4.96461 20.3977 4.64961 20.3977C4.33461 20.3977 4.12461 20.2927 3.91461 20.0827C3.49461 19.6627 3.49461 19.0327 3.91461 18.6127L6.53961 15.9877C5.48961 15.0427 4.54461 13.9927 4.01961 13.1527C3.49461 12.5227 3.49461 11.5777 4.01961 10.8427C5.27961 8.95266 8.21961 5.69766 11.9996 5.69766C13.3646 5.69766 14.6246 6.11766 15.7796 6.74766ZM8.84961 11.9977C8.84961 12.5227 8.95461 12.9427 9.16461 13.3627L13.3646 9.16266C12.9446 8.95266 12.5246 8.84766 11.9996 8.84766C10.2146 8.84766 8.84961 10.2127 8.84961 11.9977ZM10.3193 18.0866L18.9293 9.47656C19.1135 9.70675 19.2976 9.91675 19.4641 10.1066C19.6773 10.3497 19.8614 10.5597 19.9793 10.7366C20.5043 11.4716 20.5043 12.4166 19.9793 13.1516C18.7193 15.0416 15.7793 18.2966 11.9993 18.2966C11.4743 18.2966 10.8443 18.1916 10.3193 18.0866Z" fill="#A3A5AB"/>
</svg>
