<svg width="24" height="24" viewBox="0 0 24 24" fill="none" xmlns="http://www.w3.org/2000/svg">
<path d="M11.9988 18.2992C15.7788 18.2992 18.7188 15.0442 19.9788 13.1542C20.5038 12.4192 20.5038 11.4742 19.9788 10.7392C18.7188 8.95422 15.7788 5.69922 11.9988 5.69922C8.21875 5.69922 5.27875 8.95422 4.01875 10.8442C3.49375 11.5792 3.49375 12.5242 4.01875 13.1542C5.27875 15.0442 8.21875 18.2992 11.9988 18.2992ZM11.9988 8.84922C13.7838 8.84922 15.1488 10.2142 15.1488 11.9992C15.1488 13.7842 13.7838 15.1492 11.9988 15.1492C10.2138 15.1492 8.84875 13.7842 8.84875 11.9992C8.84875 10.2142 10.2138 8.84922 11.9988 8.84922Z" fill="currentColor"/>
</svg>
