<svg width="24" height="24" viewBox="0 0 24 24" fill="none" xmlns="http://www.w3.org/2000/svg">
<path fill-rule="evenodd" clip-rule="evenodd" d="M4 12C4 7.58172 7.58172 4 12 4C16.4183 4 20 7.58173 20 12C20 16.4183 16.4183 20 12 20C7.58172 20 4 16.4183 4 12ZM12 2C6.47714 2 2 6.47715 2 12C2 17.5228 6.47714 22 12 22C17.5228 22 22 17.5229 22 12C22 6.47715 17.5228 2 12 2ZM11.9982 14.7999C12.5288 14.7999 12.7737 14.4623 12.8145 13.9478C12.8553 13.1601 13.1328 12.7501 14.1859 12.1392C15.2635 11.5042 15.9002 10.6522 15.9002 9.40622C15.9002 7.62976 14.4226 6.3999 12.292 6.3999C10.6594 6.3999 9.41856 7.07512 8.9206 8.1844C8.77366 8.49789 8.7002 8.77923 8.7002 9.12488C8.7002 9.61521 8.98591 9.91263 9.49203 9.91263C9.9002 9.91263 10.1533 9.73579 10.3165 9.23741C10.5777 8.36124 11.2308 7.87895 12.2186 7.87895C13.3043 7.87895 14.0471 8.53005 14.0471 9.47856C14.0471 10.2663 13.6961 10.7486 12.7084 11.3354C11.6471 11.9624 11.141 12.6456 11.141 13.6745V13.8594C11.141 14.3899 11.4267 14.7999 11.9982 14.7999ZM11.9962 18C12.5665 18 13 17.5659 13 17C13 16.4341 12.5665 16 11.9962 16C11.4411 16 11 16.4341 11 17C11 17.5659 11.4411 18 11.9962 18Z" fill="currentColor"/>
</svg>
