<svg width="24" height="24" viewBox="0 0 24 24" fill="none" xmlns="http://www.w3.org/2000/svg">
<path fill-rule="evenodd" clip-rule="evenodd" d="M11.3694 3.0735C11.7368 2.77498 12.2632 2.77498 12.6306 3.0735L20.6306 9.5735C21.0593 9.92176 21.1244 10.5516 20.7761 10.9802C20.4279 11.4088 19.7981 11.474 19.3694 11.1257L12 5.13808L4.63062 11.1257C4.20199 11.474 3.57218 11.4088 3.22392 10.9802C2.87565 10.5516 2.9408 9.92176 3.36944 9.5735L11.3694 3.0735Z" fill="currentColor"/>
<path fill-rule="evenodd" clip-rule="evenodd" d="M6 8C6.55228 8 7 8.44772 7 9V19H17V9C17 8.44772 17.4477 8 18 8C18.5523 8 19 8.44772 19 9V20C19 20.5523 18.5523 21 18 21H6C5.44772 21 5 20.5523 5 20V9C5 8.44772 5.44772 8 6 8Z" fill="currentColor"/>
<path fill-rule="evenodd" clip-rule="evenodd" d="M8.5 13C8.5 12.4477 8.94772 12 9.5 12H14.5C15.0523 12 15.5 12.4477 15.5 13V20C15.5 20.5523 15.0523 21 14.5 21H9.5C8.94772 21 8.5 20.5523 8.5 20V13ZM10.5 14V19H13.5V14H10.5Z" fill="currentColor"/>
</svg>
