<svg width="24" height="24" viewBox="0 0 24 24" fill="none" xmlns="http://www.w3.org/2000/svg">
<path fill-rule="evenodd" clip-rule="evenodd" d="M12.6769 3.6149C7.49677 3.21167 3.20963 7.49845 3.6141 12.6781C3.93336 16.7549 7.23393 20.06 11.311 20.3852C16.5007 20.798 20.7999 16.4981 20.3846 11.31C20.0593 7.23323 16.754 3.93293 12.6769 3.6149ZM12.6253 0.0157821C5.50443 -0.34425 -0.345379 5.50387 0.0158831 12.6253C0.324336 18.7231 5.27879 23.6771 11.377 23.9843C18.4991 24.3432 24.3465 18.4926 23.984 11.3736C23.6744 5.27825 18.7211 0.32541 12.6253 0.0157821ZM12.6793 22.2574C6.4778 22.6582 1.34091 17.5217 1.74298 11.3196C2.07424 6.20954 6.22215 2.06557 11.3338 1.74154C17.5269 1.3491 22.6518 6.47476 22.2593 12.6661C21.9353 17.7774 17.7909 21.9261 12.6793 22.2574ZM15.9846 7.69167C16.1443 7.37004 15.9102 6.99201 15.5514 6.99201H14.2551C14.0607 6.99201 13.8843 7.10962 13.8087 7.29083L12.4644 10.5335C12.3 10.9296 11.7395 10.932 11.5727 10.5371L10.1924 7.28723C10.1168 7.10842 9.94159 6.99201 9.74836 6.99201H8.44493C8.08607 6.99201 7.85203 7.36764 8.01046 7.68927L9.58993 10.9008C9.74836 11.2224 9.51432 11.598 9.15546 11.598H9.01023C8.74259 11.598 8.52655 11.8152 8.52655 12.0817V12.5221C8.52655 12.7897 8.74259 13.0057 9.01023 13.0057H10.3413C10.5261 13.0057 10.6953 13.1114 10.7769 13.277L10.8045 13.3358C10.8369 13.4018 10.8537 13.4738 10.8537 13.547V13.6334C10.8537 13.8998 10.6365 14.117 10.3701 14.117H9.01023C8.74259 14.117 8.52655 14.3331 8.52655 14.6007V15.0399C8.52655 15.3064 8.74259 15.5236 9.01023 15.5236H10.3701C10.6365 15.5236 10.8537 15.7396 10.8537 16.0072V17.0849C10.8537 17.3513 11.0698 17.5674 11.3374 17.5674H12.6205C12.8881 17.5674 13.1041 17.3513 13.1041 17.0849V16.0072C13.1041 15.7396 13.3214 15.5236 13.5878 15.5236H14.9597C15.2273 15.5236 15.4445 15.3064 15.4445 15.0399V14.6007C15.4445 14.3331 15.2273 14.117 14.9597 14.117H13.5878C13.3214 14.117 13.1041 13.8998 13.1041 13.6334V13.553C13.1041 13.4762 13.1233 13.3994 13.1581 13.331L13.1918 13.2674C13.2746 13.1066 13.4402 13.0057 13.6214 13.0057H14.9597C15.2273 13.0057 15.4445 12.7897 15.4445 12.5221V12.0817C15.4445 11.8152 15.2273 11.598 14.9597 11.598H14.8192C14.4592 11.598 14.2263 11.22 14.386 10.8984L15.9846 7.69167Z" fill="#52AACA"/>
</svg>
