<svg width="24" height="24" viewBox="0 0 24 24" fill="none" xmlns="http://www.w3.org/2000/svg">
<path fill-rule="evenodd" clip-rule="evenodd" d="M22.759 12C22.759 6.05821 17.9415 1.24212 12.0006 1.24212C6.05731 1.24212 1.24099 6.05821 1.24099 12C1.24099 17.9418 6.05731 22.7579 12.0006 22.7579C17.9415 22.7579 22.759 17.9418 22.759 12ZM24 12C24 18.6271 18.628 24 12.0006 24C5.37201 24 0 18.6271 0 12C0 5.37294 5.37201 0 12.0006 0C18.628 0 24 5.37294 24 12ZM10.5545 16.5139H12.812C13.1733 16.5139 13.4661 16.8067 13.4661 17.168V19.3822C13.4661 19.7434 13.1733 20.0362 12.812 20.0362H10.5545C10.1932 20.0362 9.9004 19.7434 9.9004 19.3822V17.168C9.9004 16.8067 10.1932 16.5139 10.5545 16.5139ZM10.1817 11.1696H10.1829C10.2141 11.1384 10.2561 11.1204 10.2993 11.1192C13.0226 10.9992 14.0823 10.2755 14.0823 9.11863V9.07423C14.0823 8.08413 13.3346 7.51167 12.0576 7.51167C11.0111 7.51167 10.0917 7.87651 9.21798 8.60618C8.94914 8.8306 8.55308 8.8078 8.31785 8.54857L7.14407 7.26085C6.90644 6.99922 6.91844 6.59478 7.17408 6.35356C8.39826 5.19424 9.9921 4.42976 12.1236 4.42976C15.2933 4.42976 17.4512 6.05833 17.4512 8.98662V9.02982C17.4512 11.6641 15.7326 12.8318 13.5266 13.3635C13.2758 13.4235 13.0838 13.6251 13.037 13.8795L12.9685 14.2635C12.9121 14.572 12.6433 14.7964 12.33 14.7964H11.1911C10.867 14.7964 10.5934 14.5588 10.5478 14.2395L10.1325 11.3173C10.1253 11.2632 10.1433 11.208 10.1817 11.1696Z" fill="#52AACA"/>
</svg>
