<svg width="24" height="24" viewBox="0 0 24 24" fill="none" xmlns="http://www.w3.org/2000/svg">
<path fill-rule="evenodd" clip-rule="evenodd" d="M20.998 14.456L13.544 8.95405L13.54 3.54505C13.54 3.44205 13.529 2.89305 13.086 2.45105C12.642 2.00905 12.102 1.99905 11.999 2.00005C11.896 1.99905 11.355 2.00905 10.912 2.45105C10.469 2.89305 10.458 3.44205 10.458 3.54505L10.454 8.95405L3 14.456V16.253L10.451 14.185L10.448 18.572L7.35 21.144V21.998C8.898 21.568 10.45 21.116 11.999 20.686C13.548 21.116 15.1 21.568 16.648 21.998V21.144L13.55 18.572L13.547 14.185L20.998 16.253V14.456Z" fill="currentColor"/>
</svg>
