<svg width="24" height="24" viewBox="0 0 24 24" fill="none" xmlns="http://www.w3.org/2000/svg">
<path fill-rule="evenodd" clip-rule="evenodd" d="M15.1854 3.79996C15.9664 3.01891 17.2328 3.01891 18.0138 3.79996L20.1351 5.92128C20.9162 6.70232 20.9162 7.96865 20.1351 8.7497L8.43588 20.449C8.25015 20.6347 7.99881 20.7399 7.73615 20.7418L4.29005 20.7673C3.74469 20.7713 3.29668 20.3376 3.28298 19.7924L3.19356 16.2314C3.18668 15.9576 3.29244 15.6929 3.48613 15.4992L15.1854 3.79996ZM16.5996 5.21417L5.2037 16.6101L5.25769 18.7601L7.31151 18.7449L18.7209 7.33549L16.5996 5.21417Z" fill="currentColor"/>
<path fill-rule="evenodd" clip-rule="evenodd" d="M13.7797 6.62019C14.1702 6.22967 14.8034 6.22967 15.1939 6.62019L17.3152 8.74151C17.7058 9.13204 17.7058 9.7652 17.3152 10.1557C16.9247 10.5463 16.2916 10.5463 15.901 10.1557L13.7797 8.03441C13.3892 7.64388 13.3892 7.01072 13.7797 6.62019Z" fill="currentColor"/>
</svg>
