<svg width="24" height="24" viewBox="0 0 24 24" fill="none" xmlns="http://www.w3.org/2000/svg">
<path fill-rule="evenodd" clip-rule="evenodd" d="M19.9784 10.9793H13.0207V4.0207C13.0207 3.45725 12.5635 3 12 3C11.4365 3 10.9793 3.45725 10.9793 4.0207V10.9793H4.0207C3.45725 10.9793 3 11.4365 3 12C3 12.5635 3.45725 13.0207 4.0207 13.0207H10.9793V19.9793C10.9793 20.5428 11.4365 21 12 21C12.5635 21 13.0207 20.5428 13.0207 19.9793V13.0207H19.9784C20.5428 13.0207 21 12.5635 21 12C21 11.4365 20.5428 10.9793 19.9784 10.9793Z" fill="currentColor"/>
</svg>
