<svg width="20" height="20" viewBox="0 0 20 20" fill="none" xmlns="http://www.w3.org/2000/svg">
<path fill-rule="evenodd" clip-rule="evenodd" d="M8.33333 4.16667C6.03215 4.16667 4.16667 6.03215 4.16667 8.33333C4.16667 10.6345 6.03215 12.5 8.33333 12.5C10.6345 12.5 12.5 10.6345 12.5 8.33333C12.5 6.03215 10.6345 4.16667 8.33333 4.16667ZM2.5 8.33333C2.5 5.11167 5.11167 2.5 8.33333 2.5C11.555 2.5 14.1667 5.11167 14.1667 8.33333C14.1667 11.555 11.555 14.1667 8.33333 14.1667C5.11167 14.1667 2.5 11.555 2.5 8.33333Z" fill="currentColor"/>
<path fill-rule="evenodd" clip-rule="evenodd" d="M11.2876 11.2689C11.6133 10.9438 12.141 10.9443 12.4661 11.27L17.0411 15.8533C17.3662 16.1791 17.3657 16.7067 17.04 17.0319C16.7143 17.357 16.1866 17.3565 15.8615 17.0308L11.2865 12.4474C10.9614 12.1217 10.9619 11.5941 11.2876 11.2689Z" fill="currentColor"/>
</svg>
