<svg width="24" height="24" viewBox="0 0 24 24" fill="none" xmlns="http://www.w3.org/2000/svg">
<path fill-rule="evenodd" clip-rule="evenodd" d="M9.1518 3.06253C9.26963 2.44094 9.78187 1.7998 10.6052 1.7998H13.3934C14.2118 1.7998 14.7295 2.45691 14.8464 3.06029C14.8466 3.06095 14.8467 3.06162 14.8468 3.06228L15.2455 5.0954C15.6322 5.27638 15.9983 5.48774 16.3439 5.72546L18.3045 5.05326L18.324 5.04678C18.8683 4.87261 19.7057 4.95629 20.1207 5.69681L20.7588 6.80354L20.8711 6.99745L21.5102 8.11585C21.5108 8.1169 21.5114 8.11794 21.512 8.11898C21.9092 8.80897 21.6323 9.58931 21.148 10.0055L19.5966 11.358C19.6161 11.5611 19.6288 11.7741 19.6288 11.9968C19.6288 12.214 19.6161 12.4243 19.5967 12.6257L21.1514 13.9811L21.1633 13.9916C21.5976 14.3825 21.9317 15.1516 21.5063 15.8644L20.8692 16.9695L20.7579 17.1616L20.1207 18.2668C19.7212 18.9792 18.8995 19.1206 18.2984 18.9082L16.3577 18.2401C16.0062 18.4841 15.6341 18.6976 15.2449 18.879L14.8468 20.9014C14.7288 21.5229 14.2166 22.1637 13.3934 22.1637H10.6052C9.78726 22.1637 9.26961 21.5072 9.1524 20.9041C9.15222 20.9032 9.15203 20.9022 9.15185 20.9013L8.75375 18.879C8.3646 18.6976 7.99246 18.4841 7.64101 18.2401L5.69538 18.9099L5.67464 18.9168C5.13035 19.0909 4.29297 19.0073 3.87792 18.2667L2.48851 15.8577C2.48833 15.8574 2.48814 15.8571 2.48795 15.8568C2.08886 15.1662 2.36583 14.3847 2.85067 13.9681L4.40167 12.6159C4.38235 12.4138 4.36986 12.2024 4.36986 11.9868C4.36986 11.7682 4.38273 11.5539 4.40244 11.3483L2.85074 9.99554C2.35958 9.57369 2.09981 8.81207 2.47772 8.12494L2.48763 8.10736L3.87795 5.6968C4.27724 4.98464 5.09841 4.84308 5.69945 5.05506L7.65564 5.72575C8.00289 5.48794 8.37023 5.27745 8.75277 5.09754L9.1518 3.06253ZM11.0453 3.7998L10.6137 6.00106C10.5475 6.33864 10.3124 6.6185 9.99136 6.74199C9.43489 6.95602 8.91205 7.25603 8.45001 7.62396C8.1829 7.83665 7.82574 7.89836 7.50275 7.78762L5.39728 7.06574L4.43905 8.72689L6.11726 10.19C6.37384 10.4136 6.49901 10.7525 6.44949 11.0892C6.40194 11.4125 6.36986 11.7078 6.36986 11.9868C6.36986 12.2657 6.40199 12.5608 6.44884 12.87C6.50007 13.2081 6.375 13.5489 6.11726 13.7736L4.43905 15.2367L4.97247 16.161L5.39704 16.8974L7.49154 16.1763C7.81858 16.0637 8.18058 16.1282 8.44872 16.3466C8.90543 16.7188 9.4232 17.0164 9.98661 17.2298C10.3098 17.3522 10.5468 17.6327 10.6136 17.9718L11.045 20.1637H12.9536L13.3851 17.9718C13.4519 17.6327 13.6889 17.3522 14.0121 17.2298C14.5755 17.0164 15.0932 16.7188 15.5499 16.3466C15.8181 16.1282 16.1801 16.0637 16.5071 16.1763L18.6016 16.8974L19.0271 16.1595L19.5558 15.2433L17.8814 13.7836C17.6248 13.5599 17.4997 13.2211 17.5492 12.8844C17.5971 12.5588 17.6288 12.2746 17.6288 11.9968C17.6288 11.7084 17.5969 11.4237 17.5492 11.0992C17.4997 10.7625 17.6248 10.4237 17.8814 10.2L19.5609 8.73579L19.1374 7.99463L19.0271 7.80407L18.6014 7.06574L16.4959 7.78762C16.1729 7.89836 15.8158 7.83665 15.5487 7.62396C15.0833 7.25339 14.5714 6.95567 14.0121 6.7438C13.6887 6.6213 13.4515 6.34041 13.385 6.00106L12.9534 3.7998H11.0453ZM18.3744 6.67168L18.3806 6.68261C18.3785 6.67901 18.3764 6.67536 18.3744 6.67168ZM18.3744 17.2919C18.3768 17.2876 18.3792 17.2833 18.3816 17.2792L18.3744 17.2919ZM11.1159 20.5236L11.1153 20.5207L11.1159 20.5236ZM5.62425 17.2919L5.61809 17.2809C5.62017 17.2845 5.62222 17.2882 5.62425 17.2919ZM5.62425 6.67168C5.62189 6.67597 5.61951 6.68019 5.61711 6.68436L5.62425 6.67168ZM11.9993 10.4493C11.1475 10.4493 10.4619 11.1349 10.4619 11.9868C10.4619 12.8386 11.1475 13.5242 11.9993 13.5242C12.8512 13.5242 13.5368 12.8386 13.5368 11.9868C13.5368 11.135 12.8512 10.4493 11.9993 10.4493ZM8.46188 11.9868C8.46188 10.0304 10.0429 8.44934 11.9993 8.44934C13.9557 8.44934 15.5368 10.0304 15.5368 11.9868C15.5368 13.9432 13.9557 15.5242 11.9993 15.5242C10.0429 15.5242 8.46188 13.9432 8.46188 11.9868Z" fill="currentColor"/>
</svg>
