<svg width="24" height="24" viewBox="0 0 24 24" fill="none" xmlns="http://www.w3.org/2000/svg">
<path fill-rule="evenodd" clip-rule="evenodd" d="M3.61873 13.4268C3.863 13.3041 4.14688 13.2866 4.40433 13.3786L7.84657 14.6086C8.36665 14.7945 8.63761 15.3667 8.45177 15.8868C8.26594 16.4069 7.69368 16.6778 7.1736 16.492L4.7185 15.6147L3.95676 18.112C3.79563 18.6403 3.23677 18.9379 2.70851 18.7768C2.18025 18.6156 1.88264 18.0568 2.04377 17.5285L3.11135 14.0286C3.19112 13.7671 3.37446 13.5496 3.61873 13.4268Z" fill="currentColor"/>
<path fill-rule="evenodd" clip-rule="evenodd" d="M21.2921 5.22346C21.8203 5.38459 22.1179 5.94345 21.9568 6.47171L20.8892 9.97168C20.8095 10.2332 20.6261 10.4506 20.3818 10.5734C20.1376 10.6962 19.8537 10.7136 19.5962 10.6216L16.154 9.39162C15.6339 9.20578 15.363 8.63353 15.5488 8.11345C15.7347 7.59337 16.3069 7.32241 16.827 7.50825L19.2821 8.3855L20.0438 5.8882C20.205 5.35994 20.7638 5.06233 21.2921 5.22346Z" fill="currentColor"/>
<path fill-rule="evenodd" clip-rule="evenodd" d="M3.10873 9.39976C4.23585 5.54103 7.77673 2.7002 12.0007 2.7002C16.2335 2.7002 19.7765 5.54018 20.8934 9.40232C21.0469 9.93287 20.7412 10.4873 20.2106 10.6408C19.6801 10.7942 19.1256 10.4885 18.9722 9.95796C18.0936 6.92017 15.3109 4.7002 12.0007 4.7002C8.7017 4.7002 5.91684 6.91932 5.02851 9.96052C4.87366 10.4907 4.31837 10.7949 3.78824 10.64C3.25811 10.4852 2.95388 9.9299 3.10873 9.39976Z" fill="currentColor"/>
<path fill-rule="evenodd" clip-rule="evenodd" d="M20.2132 13.3607C20.7433 13.5155 21.0475 14.0708 20.8927 14.601C19.7656 18.4597 16.2247 21.3005 12.0007 21.3005C7.76794 21.3005 4.22493 18.4605 3.10799 14.5984C2.95455 14.0678 3.26026 13.5134 3.7908 13.3599C4.32134 13.2065 4.87582 13.5122 5.02925 14.0428C5.9078 17.0805 8.69053 19.3005 12.0007 19.3005C15.2997 19.3005 18.0846 17.0814 18.9729 14.0402C19.1278 13.5101 19.683 13.2058 20.2132 13.3607Z" fill="currentColor"/>
</svg>
