<svg width="24" height="24" viewBox="0 0 24 24" fill="none" xmlns="http://www.w3.org/2000/svg">
<path d="M3 12C3 7.02944 7.02943 3 12 3C16.9706 3 21 7.02944 21 12C21 16.9706 16.9706 21 12 21C7.02943 21 3 16.9706 3 12Z" stroke="currentColor" stroke-width="2" stroke-miterlimit="10" stroke-linecap="round" stroke-linejoin="round"/>
<path d="M11.0004 7.09961C10.9843 6.49711 11.4684 6 12.0711 6C12.6738 6 13.1578 6.49711 13.1417 7.09961L12.9745 13.3703C12.9615 13.8599 12.5608 14.25 12.0711 14.25C11.5813 14.25 11.1807 13.8599 11.1676 13.3703L11.0004 7.09961Z" fill="currentColor"/>
<path d="M12.0675 17.5C12.6378 17.5 13.0713 17.0659 13.0713 16.5C13.0713 15.9341 12.6378 15.5 12.0675 15.5C11.5124 15.5 11.0713 15.9341 11.0713 16.5C11.0713 17.0659 11.5124 17.5 12.0675 17.5Z" fill="currentColor"/>
</svg>
