<svg width="24" height="24" viewBox="0 0 24 24" fill="none" xmlns="http://www.w3.org/2000/svg">
<mask id="path-1-outside-1_5_3314" maskUnits="userSpaceOnUse" x="-0.285156" y="1.03223" width="24" height="21" fill="black">
<rect fill="white" x="-0.285156" y="1.03223" width="24" height="21"/>
<path fill-rule="evenodd" clip-rule="evenodd" d="M2.84629 18.1579C2.46853 18.8246 2.95008 19.6509 3.71631 19.6509H20.2842C21.0504 19.6509 21.532 18.8246 21.1542 18.1579L12.8703 3.53921C12.4872 2.86323 11.5133 2.86323 11.1302 3.53921L2.84629 18.1579Z"/>
</mask>
<path d="M12.8703 3.53921L11.1302 4.52524L12.8703 3.53921ZM11.1302 3.53921L9.39018 2.55319L11.1302 3.53921ZM3.71631 21.6509H20.2842V17.6509H3.71631V21.6509ZM22.8943 17.1719L14.6103 2.55319L11.1302 4.52524L19.4142 19.144L22.8943 17.1719ZM9.39018 2.55319L1.10624 17.1719L4.58633 19.144L12.8703 4.52524L9.39018 2.55319ZM14.6103 2.55319C13.4611 0.525243 10.5394 0.525235 9.39018 2.55319L12.8703 4.52524C12.4872 5.20123 11.5133 5.20122 11.1302 4.52524L14.6103 2.55319ZM20.2842 21.6509C22.5829 21.6509 24.0275 19.1718 22.8943 17.1719L19.4142 19.144C19.0364 18.4773 19.518 17.6509 20.2842 17.6509V21.6509ZM3.71631 17.6509C4.48254 17.6509 4.96409 18.4773 4.58633 19.144L1.10624 17.1719C-0.027034 19.1718 1.41763 21.6509 3.71631 21.6509V17.6509Z" fill="currentColor" mask="url(#path-1-outside-1_5_3314)"/>
<path d="M11.0004 8.09961C10.9843 7.49711 11.4684 7 12.0711 7C12.6738 7 13.1578 7.49711 13.1417 8.09961L12.9745 14.3703C12.9615 14.8599 12.5608 15.25 12.0711 15.25C11.5813 15.25 11.1807 14.8599 11.1676 14.3703L11.0004 8.09961Z" fill="currentColor"/>
<path d="M12.0675 18.5C12.6378 18.5 13.0713 18.0659 13.0713 17.5C13.0713 16.9341 12.6378 16.5 12.0675 16.5C11.5124 16.5 11.0713 16.9341 11.0713 17.5C11.0713 18.0659 11.5124 18.5 12.0675 18.5Z" fill="currentColor"/>
</svg>
